<?xml version="1.0" encoding="UTF-8"?>
<svg id="Layer_1" data-name="Layer 1" xmlns="http://www.w3.org/2000/svg" viewBox="0 0 516.65 194.57">
  <defs>
    <style>
      .cls-1 {
        stroke-width: 0px;
      }

      .cls-1, .cls-2 {
        fill: #fff;
      }

      .cls-2 {
        stroke: #fff;
        stroke-miterlimit: 10;
      }
    </style>
  </defs>
  <g>
    <path class="cls-2" d="m164.99,58.12v80.77h39.07c3.12,0,5.76,1.08,7.92,3.24,2.16,2.16,3.24,4.8,3.24,7.92s-1.08,5.76-3.24,7.92c-2.16,2.16-4.8,3.24-7.92,3.24h-52.7c-3.39,0-6.18-1.09-8.37-3.28-2.19-2.19-3.28-4.98-3.28-8.37V58.12c0-3.5,1.23-6.48,3.69-8.95,2.46-2.46,5.44-3.69,8.95-3.69s6.48,1.23,8.95,3.69,3.69,5.45,3.69,8.95Z"/>
    <path class="cls-2" d="m227.21,134.3V55.33c0-3.28,1.15-6.07,3.45-8.37s5.09-3.45,8.37-3.45,6.07,1.15,8.37,3.45,3.45,5.09,3.45,8.37v77.32c0,2.96.45,5.21,1.35,6.77s2.53,2.53,4.88,2.91c2.57.44,4.69,1.56,6.36,3.37,1.67,1.81,2.5,4.02,2.5,6.65s-.9,4.95-2.71,6.81c-1.81,1.86-4.02,2.87-6.65,3.04h-.98c-18.94,0-28.4-9.3-28.4-27.91Z"/>
    <path class="cls-2" d="m348.04,111.31v4.1c0,3.61-1.12,6.54-3.37,8.78-2.24,2.25-5.17,3.37-8.78,3.37h-37.76v.66c0,4.87,1.3,8.66,3.9,11.37,2.6,2.71,6.22,4.06,10.88,4.06,6.07,0,11.22-2.02,15.43-6.07,1.7-1.53,3.78-2.3,6.24-2.3,2.84,0,5.28,1.01,7.31,3.04,2.02,2.02,3.04,4.46,3.04,7.31,0,3.06-1.37,5.86-4.1,8.37-3.12,2.79-7.2,5.02-12.23,6.69-5.04,1.67-10.32,2.5-15.84,2.5-11.55,0-20.81-3.34-27.79-10.01-6.98-6.68-10.47-14.94-10.47-24.79v-16.25c0-9.79,3.47-18.07,10.42-24.83,6.95-6.76,15.73-10.14,26.35-10.14s19.19,3.32,26.23,9.97c7.03,6.65,10.55,14.71,10.55,24.17Zm-49.91.49h26.27v-.49c0-4.32-1.19-7.84-3.57-10.55-2.38-2.71-5.57-4.06-9.56-4.06s-7.18,1.35-9.56,4.06c-2.38,2.71-3.57,6.23-3.57,10.55v.49Z"/>
    <path class="cls-2" d="m404.64,159c-2.66,2.02-5.82,3.04-9.48,3.04s-6.83-1.01-9.48-3.04c-2.66-2.02-4.69-4.79-6.12-8.29l-22.33-55.82c-.66-1.7-.99-3.28-.99-4.76,0-3.28,1.15-6.07,3.45-8.37,2.3-2.3,5.09-3.45,8.37-3.45,2.57,0,4.86.73,6.85,2.18,2,1.45,3.43,3.35,4.31,5.7l15.92,42.52,15.92-42.52c.88-2.35,2.31-4.25,4.31-5.7,2-1.45,4.28-2.18,6.85-2.18,3.28,0,6.07,1.15,8.37,3.45s3.45,5.09,3.45,8.37c0,1.48-.33,3.06-.98,4.76l-22.33,55.82c-1.42,3.5-3.46,6.27-6.12,8.29Z"/>
    <path class="cls-2" d="m442.6,128.22v-16.09c0-9.79,3.47-18.07,10.42-24.83,6.95-6.76,15.73-10.14,26.35-10.14s19.4,3.38,26.35,10.14c6.95,6.76,10.42,15.04,10.42,24.83v16.09c0,9.8-3.48,18.07-10.42,24.83-6.95,6.76-15.73,10.14-26.35,10.14s-19.4-3.38-26.35-10.14c-6.95-6.76-10.42-15.04-10.42-24.83Zm23.64-14.45v12.81c0,5.64,1.23,9.89,3.69,12.76,2.46,2.87,5.61,4.31,9.44,4.31s6.98-1.44,9.44-4.31c2.46-2.87,3.69-7.13,3.69-12.76v-12.81c0-5.64-1.23-9.89-3.69-12.76-2.46-2.87-5.61-4.31-9.44-4.31s-6.98,1.44-9.44,4.31c-2.46,2.87-3.69,7.13-3.69,12.76Z"/>
  </g>
  <path class="cls-1" d="m61.6,182.03c-7.95,0-14.89-5.92-16.18-13.78-6.09,1.37-11.4,3.5-14.59,6.3-9.46,8.3,1.17,20.02,30.78,20.02s40.24-11.72,30.78-20.02c-3.19-2.8-8.5-4.93-14.59-6.3-1.29,7.86-8.23,13.78-16.18,13.78Z"/>
  <path class="cls-1" d="m109.78,38.15h-34.77V13.42c0-7.4-6.02-13.42-13.42-13.42s-13.42,6.02-13.42,13.42v24.73H13.42c-7.4,0-13.42,6.02-13.42,13.42s6.02,13.42,13.42,13.42h34.77v100.63c0,.63.06,1.31.18,2.09,1.02,6.46,6.71,11.33,13.23,11.33s12.21-4.87,13.23-11.33c.12-.78.18-1.46.18-2.09v-100.63h34.77c7.4,0,13.42-6.02,13.42-13.42s-6.02-13.42-13.42-13.42Zm-48.18,26.01c-6.44,0-11.69-5.24-11.69-11.69s5.24-11.69,11.69-11.69,11.69,5.24,11.69,11.69-5.24,11.69-11.69,11.69Z"/>
</svg>