<?xml version="1.0" encoding="utf-8"?>
<!-- Generator: Adobe Illustrator 27.8.1, SVG Export Plug-In . SVG Version: 6.00 Build 0)  -->
<svg version="1.1" id="Layer_1" xmlns="http://www.w3.org/2000/svg" xmlns:xlink="http://www.w3.org/1999/xlink" x="0px" y="0px"
	 viewBox="0 0 792 612" style="enable-background:new 0 0 792 612;" xml:space="preserve">
<style type="text/css">
	.st0{fill:#2D818E;stroke:#2D818E;stroke-miterlimit:10;}
	.st1{fill:#2D818E;stroke:#FFFFFF;stroke-width:3;stroke-miterlimit:10;}
	.st2{fill:#FFFFFF;stroke:#FFFFFF;stroke-miterlimit:10;}
</style>
<g>
	<g>
		<path class="st0" d="M303.67,267.59v80.77h39.07c3.12,0,5.76,1.08,7.92,3.24c2.16,2.16,3.24,4.8,3.24,7.92
			c0,3.12-1.08,5.76-3.24,7.92c-2.16,2.16-4.8,3.24-7.92,3.24h-52.7c-3.39,0-6.18-1.09-8.37-3.28c-2.19-2.19-3.28-4.98-3.28-8.37
			v-91.44c0-3.5,1.23-6.48,3.69-8.95c2.46-2.46,5.44-3.69,8.95-3.69c3.5,0,6.48,1.23,8.95,3.69
			C302.44,261.1,303.67,264.09,303.67,267.59z"/>
		<path class="st0" d="M365.89,343.76V264.8c0-3.28,1.15-6.07,3.45-8.37s5.09-3.45,8.37-3.45c3.28,0,6.07,1.15,8.37,3.45
			s3.45,5.09,3.45,8.37v77.32c0,2.96,0.45,5.21,1.35,6.77s2.53,2.53,4.88,2.91c2.57,0.44,4.69,1.56,6.36,3.37
			c1.67,1.81,2.5,4.02,2.5,6.65c0,2.68-0.9,4.95-2.71,6.81c-1.81,1.86-4.02,2.87-6.65,3.04h-0.98
			C375.35,371.67,365.89,362.37,365.89,343.76z"/>
		<path class="st0" d="M486.72,320.78v4.1c0,3.61-1.12,6.54-3.37,8.78c-2.24,2.25-5.17,3.37-8.78,3.37h-37.76v0.66
			c0,4.87,1.3,8.66,3.9,11.37c2.6,2.71,6.22,4.06,10.88,4.06c6.07,0,11.22-2.02,15.43-6.07c1.7-1.53,3.78-2.3,6.24-2.3
			c2.84,0,5.28,1.01,7.31,3.04c2.02,2.02,3.04,4.46,3.04,7.31c0,3.06-1.37,5.86-4.1,8.37c-3.12,2.79-7.2,5.02-12.23,6.69
			c-5.04,1.67-10.32,2.5-15.84,2.5c-11.55,0-20.81-3.34-27.79-10.01c-6.98-6.68-10.47-14.94-10.47-24.79V321.6
			c0-9.79,3.47-18.07,10.42-24.83c6.95-6.76,15.73-10.14,26.35-10.14c10.45,0,19.19,3.32,26.23,9.97
			C483.2,303.25,486.72,311.31,486.72,320.78z M436.81,321.27h26.27v-0.49c0-4.32-1.19-7.84-3.57-10.55
			c-2.38-2.71-5.57-4.06-9.56-4.06c-4,0-7.18,1.35-9.56,4.06c-2.38,2.71-3.57,6.23-3.57,10.55V321.27z"/>
		<path class="st0" d="M543.31,368.47c-2.66,2.02-5.82,3.04-9.48,3.04c-3.67,0-6.83-1.01-9.48-3.04c-2.66-2.02-4.69-4.79-6.12-8.29
			l-22.33-55.82c-0.66-1.7-0.99-3.28-0.99-4.76c0-3.28,1.15-6.07,3.45-8.37c2.3-2.3,5.09-3.45,8.37-3.45c2.57,0,4.86,0.73,6.85,2.18
			c2,1.45,3.43,3.35,4.31,5.7l15.92,42.52l15.92-42.52c0.88-2.35,2.31-4.25,4.31-5.7c2-1.45,4.28-2.18,6.85-2.18
			c3.28,0,6.07,1.15,8.37,3.45s3.45,5.09,3.45,8.37c0,1.48-0.33,3.06-0.98,4.76l-22.33,55.82
			C548.01,363.68,545.97,366.45,543.31,368.47z"/>
		<path class="st0" d="M581.28,337.69V321.6c0-9.79,3.47-18.07,10.42-24.83c6.95-6.76,15.73-10.14,26.35-10.14
			c10.62,0,19.4,3.38,26.35,10.14c6.95,6.76,10.42,15.04,10.42,24.83v16.09c0,9.8-3.48,18.07-10.42,24.83
			c-6.95,6.76-15.73,10.14-26.35,10.14c-10.62,0-19.4-3.38-26.35-10.14C584.75,355.76,581.28,347.49,581.28,337.69z M604.92,323.24
			v12.81c0,5.64,1.23,9.89,3.69,12.76c2.46,2.87,5.61,4.31,9.44,4.31c3.83,0,6.98-1.44,9.44-4.31c2.46-2.87,3.69-7.13,3.69-12.76
			v-12.81c0-5.64-1.23-9.89-3.69-12.76c-2.46-2.87-5.61-4.31-9.44-4.31c-3.83,0-6.98,1.44-9.44,4.31
			C606.15,313.35,604.92,317.61,604.92,323.24z"/>
	</g>
	<g>
		<path class="st0" d="M231.05,384.01c9.46,8.3-1.17,20.02-30.78,20.02s-40.24-11.72-30.78-20.02c5.86-5.14,18.86-8.06,30.78-8.06
			S225.19,378.88,231.05,384.01z"/>
		<path class="st1" d="M248.46,246.11h-33.27v-23.23c0-8.2-6.71-14.92-14.92-14.92c-8.2,0-14.92,6.71-14.92,14.92v23.23h-33.27
			c-8.2,0-14.92,6.71-14.92,14.92c0,8.2,6.71,14.92,14.92,14.92h33.27v99.13c0,8.2,6.71,14.92,14.92,14.92
			c8.2,0,14.92-6.71,14.92-14.92v-99.13h33.27c8.2,0,14.92-6.71,14.92-14.92C263.37,252.83,256.66,246.11,248.46,246.11z"/>
		<circle class="st2" cx="200.27" cy="261.93" r="10.19"/>
	</g>
</g>
</svg>
